<?xml version="1.0" encoding="UTF-8" standalone="no"?>
<svg width="61px" height="98px" viewBox="0 0 61 98" version="1.1" xmlns="http://www.w3.org/2000/svg" xmlns:xlink="http://www.w3.org/1999/xlink">
    <!-- Generator: Sketch 3.8.3 (29802) - http://www.bohemiancoding.com/sketch -->
    <title>energy</title>
    <desc>Created with Sketch.</desc>
    <defs></defs>
    <g id="Page-1" stroke="none" stroke-width="1" fill="none" fill-rule="evenodd">
        <g id="energy" fill="#000000">
            <g id="Page-1">
                <g id="energy">
                    <path d="M48.8,75.5 L13.7,75.5 C12.9,75.5 12.2,74.8 12.2,74 L12.2,73.6 C12.2,72.8 12.9,72.1 13.7,72.1 L48.9,72.1 C49.7,72.1 50.4,72.8 50.4,73.6 L50.4,74 C50.3,74.8 49.7,75.5 48.8,75.5 L48.8,75.5 L48.8,75.5 Z" id="Shape"></path>
                    <path d="M48.8,81.8 L13.7,81.8 C12.9,81.8 12.2,81.1 12.2,80.3 L12.2,79.9 C12.2,79.1 12.9,78.4 13.7,78.4 L48.9,78.4 C49.7,78.4 50.4,79.1 50.4,79.9 L50.4,80.3 C50.3,81.2 49.7,81.8 48.8,81.8 L48.8,81.8 L48.8,81.8 Z" id="Shape"></path>
                    <path d="M48.8,88.2 L13.7,88.2 C12.9,88.2 12.2,87.5 12.2,86.7 L12.2,86.3 C12.2,85.5 12.9,84.8 13.7,84.8 L48.9,84.8 C49.7,84.8 50.4,85.5 50.4,86.3 L50.4,86.7 C50.3,87.5 49.7,88.2 48.8,88.2 L48.8,88.2 L48.8,88.2 Z" id="Shape"></path>
                    <path d="M31.2,97.1 C36,97.1 40,94.5 40,91.4 L22.4,91.4 C22.4,94.6 26.4,97.1 31.2,97.1 L31.2,97.1 L31.2,97.1 Z" id="Shape"></path>
                    <path d="M43.4,2.7 C31.6,-1.5 14.2,0.6 6.2,11 C-0.9,20.1 0.2,33 2.4,43.7 C4.2,52.2 7.1,60.7 11.1,68.5 C12.2,70.7 15.4,68.7 14.3,66.7 C7.6,53.4 1.3,34.9 5.7,20 C9.6,7.2 23.5,3.6 35.5,4.7 C48.2,6 55.5,15.2 56.8,27.5 C58.2,40.7 54.5,54.9 48.4,66.5 C47.3,68.7 50.6,70.5 51.6,68.3 C61.3,49.9 69.6,12.1 43.4,2.7 L43.4,2.7 L43.4,2.7 Z" id="Shape"></path>
                </g>
            </g>
        </g>
    </g>
</svg>