<?xml version="1.0" encoding="UTF-8" standalone="no"?>
<svg width="90px" height="76px" viewBox="0 0 90 76" version="1.1" xmlns="http://www.w3.org/2000/svg" xmlns:xlink="http://www.w3.org/1999/xlink">
    <!-- Generator: Sketch 3.8.3 (29802) - http://www.bohemiancoding.com/sketch -->
    <title>faucet</title>
    <desc>Created with Sketch.</desc>
    <defs></defs>
    <g id="Page-1" stroke="none" stroke-width="1" fill="none" fill-rule="evenodd">
        <g id="faucet" fill="#000000">
            <path d="M15,0 C7.855833,0 2,5.85583 2,13 C2,20.14417 7.855833,26 15,26 C20.974831,25.252364 26.994991,24.475479 33,23.6875 L33,32 L3,32 C1.3431452,32 0,33.343145 0,35 C0,36.656855 1.3431452,38 3,38 L36,38 C37.6567856,37.9998343 38.9998343,36.6567856 39,35 L39,24.3125 C40.252746,24.759916 41.599993,25 43,25 C44.400007,25 45.747254,24.759916 47,24.3125 L47,35 C47.0001657,36.6567856 48.3432144,37.9998343 50,38 L65,38 C75.577889,38 84,46.4221 84,57 L84,70 L73,70 L73,59 C73,53.5119 68.488108,49 63,49 L3,49 C1.3431452,49 0,50.343145 0,52 C0,53.656855 1.3431452,55 3,55 L63,55 C65.26789,55 67,56.7321 67,59 L67,73 C67.0001657,74.6567856 68.3432144,75.9998343 70,76 L87,76 C88.6567856,75.9998343 89.9998343,74.6567856 90,73 L90,57 C90,43.2019 78.798109,32 65,32 L53,32 L53,23.65625 C59.005676,24.451587 65.021994,25.323882 71,26 C78.144167,26 84,20.14417 84,13 C84,5.85583 78.144167,0 71,0 C63.779697,0.838325 56.494375,1.829335 49.25,2.78125 C47.426255,1.65898 45.283412,1 43,1 C40.701006,1 38.550568,1.676076 36.71875,2.8125 C29.4735,1.977634 22.227423,0.595781 15,0 L15,0 Z M14.9375,6 L15,6 L32,8.21875 C31.355637,9.686385 31,11.30356 31,13 C31,14.681899 31.33478,16.292394 31.96875,17.75 L14.84375,19.96875 C11.020519,19.88246 8,16.84616 8,13 C8,9.11984 11.06616,6.03369 14.9375,6 L14.9375,6 Z M71,6 L71.0625,6 C74.93384,6.0337 78,9.11984 78,13 C78,16.84616 74.979481,19.88251 71.15625,19.96875 L54.03125,17.75 C54.66522,16.292394 55,14.681899 55,13 C55,11.30356 54.644363,9.686385 54,8.21875 L71,6 L71,6 Z M43,7 C46.349243,7 49,9.65076 49,13 C49,16.34924 46.349243,19 43,19 C39.650757,19 37,16.34924 37,13 C37,9.65076 39.650757,7 43,7 L43,7 Z" id="Shape"></path>
        </g>
    </g>
</svg>