<?xml version="1.0" encoding="UTF-8" standalone="no"?>
<svg width="48px" height="72px" viewBox="0 0 48 72" version="1.1" xmlns="http://www.w3.org/2000/svg" xmlns:xlink="http://www.w3.org/1999/xlink">
    <!-- Generator: Sketch 3.8.3 (29802) - http://www.bohemiancoding.com/sketch -->
    <title>leak</title>
    <desc>Created with Sketch.</desc>
    <defs></defs>
    <g id="Page-1" stroke="none" stroke-width="1" fill="none" fill-rule="evenodd">
        <g id="leak">
            <g id="Page-1" fill="#000000">
                <g id="leak">
                    <g id="Page-1">
                        <g id="leak">
                            <path d="M23.958,0.24 C23.118,0.267 22.306,0.747 21.914,1.507 C17.266,10.32 11.945,17.895 7.717,24.99 C3.517,32.114 0.296,38.844 0.296,46.023 C0.296,60.13 10.825,71.759 24.014,71.759 C37.176,71.759 47.704,60.13 47.704,46.023 C47.704,38.843 44.484,32.114 40.256,24.99 C36.027,17.894 30.735,10.32 26.086,1.507 C25.666,0.747 24.826,0.24 23.958,0.24 L23.958,0.24 L23.958,0.24 L23.958,0.24 L23.958,0.24 Z M23.9841534,2.507 C28.7517144,10.9824134 33.7706743,18.5379096 37.7163975,25.2039271 C42.3261295,32.9488181 45.3880107,39.7095329 45.3880107,46.1534626 C45.3880107,59.3908002 35.7288803,69.803 24.0157192,69.803 C12.3036854,69.803 2.6129893,59.3919275 2.6129893,46.1534626 C2.6129893,39.7095329 5.6433047,32.9488181 10.2519094,25.2039271 C14.1987599,18.5367823 19.1850267,10.9812861 23.9841534,2.507 L23.9841534,2.507 L23.9841534,2.507 L23.9841534,2.507 L23.9841534,2.507 Z" id="Shape"></path>
                        </g>
                    </g>
                </g>
            </g>
            <path d="M10.68235,51.1148846 C10.68235,51.1148846 10.128138,58.3403787 19.4299984,62.7604361" id="Path-3" stroke="#000000" stroke-width="2" stroke-linecap="round"></path>
        </g>
    </g>
</svg>