<?xml version="1.0" encoding="UTF-8" standalone="no"?>
<svg width="60px" height="72px" viewBox="0 0 60 72" version="1.1" xmlns="http://www.w3.org/2000/svg" xmlns:xlink="http://www.w3.org/1999/xlink">
    <!-- Generator: Sketch 3.8.3 (29802) - http://www.bohemiancoding.com/sketch -->
    <title>outdoor</title>
    <desc>Created with Sketch.</desc>
    <defs></defs>
    <g id="Page-1" stroke="none" stroke-width="1" fill="none" fill-rule="evenodd">
        <g id="outdoor" transform="translate(1.000000, 2.000000)">
            <circle id="Oval" stroke="#000000" stroke-width="3.3568" cx="28.711" cy="27.999" r="27.75"></circle>
            <path d="M28.749,69.248 C27.788,69.248 27.009,68.469 27.009,67.508 L27.009,17.878 C27.009,16.917 27.788,16.138 28.749,16.138 C29.71,16.138 30.489,16.917 30.489,17.878 L30.489,67.507 C30.489,68.468 29.71,69.248 28.749,69.248 L28.749,69.248 Z" id="Shape" fill="#000000"></path>
            <path d="M28.737,48.762 C28.181,48.762 27.631,48.516 27.26,48.044 C26.621,47.23 26.763,46.051 27.578,45.412 L38.293,37.005 C39.108,36.366 40.286,36.508 40.925,37.323 C41.564,38.137 41.422,39.316 40.607,39.955 L29.892,48.362 C29.549,48.631 29.142,48.762 28.737,48.762 L28.737,48.762 Z M28.196,43.875 C27.718,43.875 27.24,43.693 26.874,43.33 L16.911,33.425 C16.177,32.695 16.173,31.508 16.903,30.774 C17.633,30.04 18.821,30.037 19.554,30.766 L29.517,40.671 C30.251,41.401 30.255,42.588 29.525,43.322 C29.16,43.69 28.678,43.875 28.196,43.875 L28.196,43.875 Z M28.735,36.967 C28.254,36.967 27.772,36.782 27.405,36.414 C26.675,35.68 26.678,34.493 27.412,33.762 L36.619,24.606 C37.353,23.876 38.54,23.88 39.271,24.613 C40.001,25.347 39.998,26.534 39.264,27.265 L30.057,36.421 C29.692,36.785 29.213,36.967 28.735,36.967 L28.735,36.967 Z M28.322,30.327 C27.693,30.327 27.079,30.011 26.725,29.437 L21.026,20.208 C20.482,19.327 20.755,18.171 21.636,17.627 C22.518,17.083 23.673,17.356 24.217,18.237 L29.916,27.466 C30.46,28.347 30.187,29.503 29.306,30.047 C28.999,30.236 28.658,30.327 28.322,30.327 L28.322,30.327 Z" id="Shape" fill="#000000"></path>
        </g>
    </g>
</svg>