<?xml version="1.0" encoding="UTF-8" standalone="no"?>
<svg width="60px" height="96px" viewBox="0 0 60 96" version="1.1" xmlns="http://www.w3.org/2000/svg" xmlns:xlink="http://www.w3.org/1999/xlink">
    <!-- Generator: Sketch 3.8.3 (29802) - http://www.bohemiancoding.com/sketch -->
    <title>shower</title>
    <desc>Created with Sketch.</desc>
    <defs></defs>
    <g id="Page-1" stroke="none" stroke-width="1" fill="none" fill-rule="evenodd">
        <g id="shower" fill="#000000">
            <path d="M24,0 L27,0 L27,12.119 C27.987,12.041 28.987,12 30,12 C31.013,12 32.013,12.04 33,12.119 L33,0 L36,0 L36,12.481 C49.693,14.705 60,24.389 60,36 L60,37.5 C60,38.328 59.328,39 58.5,39 L1.5,39 C0.672,39 0,38.328 0,37.5 L0,36 C0,24.389 10.307,14.705 24,12.481 L24,0 L24,0 L24,0 Z M54,70.5 L54,61.5 C54,60.672 53.328,60 52.5,60 C51.672,60 51,60.672 51,61.5 L51,70.5 C51,71.328 51.672,72 52.5,72 C53.329,72 54,71.328 54,70.5 L54,70.5 L54,70.5 Z M45,76.5 L45,67.5 C45,66.672 44.328,66 43.5,66 C42.672,66 42,66.672 42,67.5 L42,76.5 C42,77.328 42.672,78 43.5,78 C44.328,78 45,77.328 45,76.5 L45,76.5 L45,76.5 Z M36,70.5 L36,61.5 C36,60.672 35.328,60 34.5,60 C33.672,60 33,60.672 33,61.5 L33,70.5 C33,71.328 33.672,72 34.5,72 C35.328,72 36,71.328 36,70.5 L36,70.5 L36,70.5 Z M27,76.5 L27,67.5 C27,66.672 26.328,66 25.5,66 C24.672,66 24,66.672 24,67.5 L24,76.5 C24,77.328 24.672,78 25.5,78 C26.329,78 27,77.328 27,76.5 L27,76.5 L27,76.5 Z M18,70.5 L18,61.5 C18,60.672 17.328,60 16.5,60 C15.672,60 15,60.672 15,61.5 L15,70.5 C15,71.328 15.672,72 16.5,72 C17.328,72 18,71.328 18,70.5 L18,70.5 L18,70.5 Z M9,76.5 L9,67.5 C9,66.672 8.328,66 7.5,66 C6.672,66 6,66.672 6,67.5 L6,76.5 C6,77.328 6.672,78 7.5,78 C8.329,78 9,77.328 9,76.5 L9,76.5 L9,76.5 Z M9,94.5 L9,85.5 C9,84.672 8.328,84 7.5,84 C6.672,84 6,84.672 6,85.5 L6,94.5 C6,95.328 6.672,96 7.5,96 C8.328,96 9,95.328 9,94.5 L9,94.5 L9,94.5 Z M27,94.5 L27,85.5 C27,84.672 26.328,84 25.5,84 C24.672,84 24,84.672 24,85.5 L24,94.5 C24,95.328 24.672,96 25.5,96 C26.328,96 27,95.328 27,94.5 L27,94.5 L27,94.5 Z M18,94.5 L18,79.5 C18,78.672 17.328,78 16.5,78 C15.672,78 15,78.672 15,79.5 L15,94.5 C15,95.328 15.672,96 16.5,96 C17.328,96 18,95.328 18,94.5 L18,94.5 L18,94.5 Z M45,94.5 L45,85.5 C45,84.672 44.328,84 43.5,84 C42.672,84 42,84.672 42,85.5 L42,94.5 C42,95.328 42.672,96 43.5,96 C44.328,96 45,95.328 45,94.5 L45,94.5 L45,94.5 Z M36,94.5 L36,79.5 C36,78.672 35.328,78 34.5,78 C33.672,78 33,78.672 33,79.5 L33,94.5 C33,95.328 33.672,96 34.5,96 C35.328,96 36,95.328 36,94.5 L36,94.5 L36,94.5 Z M54,94.5 L54,79.5 C54,78.672 53.328,78 52.5,78 C51.672,78 51,78.672 51,79.5 L51,94.5 C51,95.328 51.672,96 52.5,96 C53.328,96 54,95.328 54,94.5 L54,94.5 L54,94.5 Z M51,43.5 L51,52.5 C51,53.328 51.672,54 52.5,54 C53.328,54 54,53.328 54,52.5 L54,43.5 C54,42.672 53.328,42 52.5,42 C51.672,42 51,42.672 51,43.5 L51,43.5 L51,43.5 Z M33,43.5 L33,52.5 C33,53.328 33.672,54 34.5,54 C35.328,54 36,53.328 36,52.5 L36,43.5 C36,42.672 35.328,42 34.5,42 C33.672,42 33,42.672 33,43.5 L33,43.5 L33,43.5 Z M42,43.5 L42,58.5 C42,59.328 42.672,60 43.5,60 C44.328,60 45,59.328 45,58.5 L45,43.5 C45,42.672 44.328,42 43.5,42 C42.672,42 42,42.672 42,43.5 L42,43.5 L42,43.5 Z M15,43.5 L15,52.5 C15,53.328 15.672,54 16.5,54 C17.328,54 18,53.328 18,52.5 L18,43.5 C18,42.672 17.328,42 16.5,42 C15.672,42 15,42.672 15,43.5 L15,43.5 L15,43.5 Z M24,43.5 L24,58.5 C24,59.328 24.672,60 25.5,60 C26.328,60 27,59.328 27,58.5 L27,43.5 C27,42.672 26.328,42 25.5,42 C24.672,42 24,42.672 24,43.5 L24,43.5 L24,43.5 Z M6,43.5 L6,58.5 C6,59.328 6.672,60 7.5,60 C8.328,60 9,59.328 9,58.5 L9,43.5 C9,42.672 8.328,42 7.5,42 C6.672,42 6,42.672 6,43.5 L6,43.5 L6,43.5 Z M57,36 C57,24.402 44.911,15 30,15 C15.089,15 3,24.402 3,36 L57,36 L57,36 Z" id="Shape"></path>
        </g>
    </g>
</svg>