<?xml version="1.0" encoding="UTF-8" standalone="no"?>
<svg width="58px" height="90px" viewBox="0 0 58 90" version="1.1" xmlns="http://www.w3.org/2000/svg" xmlns:xlink="http://www.w3.org/1999/xlink">
    <!-- Generator: Sketch 3.8.3 (29802) - http://www.bohemiancoding.com/sketch -->
    <title>toilet</title>
    <desc>Created with Sketch.</desc>
    <defs></defs>
    <g id="Page-1" stroke="none" stroke-width="1" fill="none" fill-rule="evenodd">
        <g id="toilet" fill="#000000">
            <path d="M47.5,57 L14.2,57 C12.5,57 11.2,58.5 11.2,60.3 L11.2,65.7 C11.2,72.5 22.5,74 22.5,77.8 C22.5,81.6 11.6,81.1 11.6,83.8 L11.6,86.6 C11.6,88.4 13,89.9 14.6,89.9 L47.3,89.9 C49,89.9 50.3,88.4 50.3,86.6 L50.3,83.8 C50.3,81 39.4,81.5 39.4,77.8 C39.4,74.1 50.7,72.5 50.7,65.7 L50.7,60.3 C50.6,58.5 49.2,57 47.5,57 L47.5,57 Z M48.4,65.6 C48.4,68.1 46,69.7 42.6,71.7 C39.8,73.3 37.1,74.9 37.1,77.7 C37.1,81.4 41.4,82.5 44.8,83.3 C45.8,83.6 47.4,83.9 48,84.3 L48,86.5 C48,87.1 47.6,87.7 47.1,87.7 L14.5,87.7 C14,87.7 13.6,87.2 13.6,86.5 L13.6,84.3 C14.3,84 15.8,83.6 16.8,83.3 C20.2,82.4 24.5,81.4 24.5,77.7 C24.5,74.9 21.9,73.3 19,71.7 C15.6,69.7 13.2,68.1 13.2,65.6 L13.2,60.2 C13.2,59.6 13.6,59 14.1,59 L47.4,59 C47.9,59 48.3,59.5 48.3,60.2 L48.3,65.6 L48.4,65.6 Z M47.7,47 L14,47 C11.9,47 10.1,48.7 10.1,50.9 C10.1,53 11.8,54.8 14,54.8 L47.8,54.8 C49.9,54.8 51.7,53.1 51.7,50.9 C51.6,48.8 49.9,47 47.7,47 L47.7,47 Z M47.7,52.7 L14,52.7 C13,52.7 12.2,51.9 12.2,50.9 C12.2,49.9 13,49.1 14,49.1 L47.8,49.1 C48.8,49.1 49.6,49.9 49.6,50.9 C49.5,51.9 48.7,52.7 47.7,52.7 L47.7,52.7 Z M11.1,27 C11.1,35.2 12.4,44.8 18.6,44.8 L28,44.8 L33.6,44.8 L43,44.8 C49.3,44.8 50.5,35.2 50.5,27 C50.5,13.5 44.9,-7.10542736e-15 33.6,-7.10542736e-15 L28,-7.10542736e-15 C16.8,-3.55271368e-15 11.1,13.5 11.1,27 L11.1,27 Z M28,2.1 L33.6,2.1 C43.8,2.1 48.4,15.4 48.4,27 C48.4,31.9 47.9,36 47.1,39 C46.1,42.3 44.8,42.7 43,42.7 L18.6,42.7 C16.9,42.7 15.5,42.2 14.5,39 C13.6,36.1 13.2,31.9 13.2,27 C13.3,15.4 17.8,2.1 28,2.1 L28,2.1 Z M57.2,4.2 C57.2,2.1 55.5,0.3 53.3,0.3 L44.9,0.3 C44.3,0.3 43.8,0.8 43.8,1.4 C43.8,2 44.3,2.5 44.9,2.5 L53.3,2.5 C54.3,2.5 55.1,3.3 55.1,4.3 C55.1,5.3 54.3,6 53.4,6 L53.2,6 L52.7,6 L50.6,6 C50,6 49.5,6.5 49.5,7.1 C49.5,7.7 50,8.2 50.6,8.2 L52.7,8.2 C54.1,8.2 55.2,9.3 55.2,10.6 L55.2,44.7 C55.2,46 54.1,47.1 52.7,47.1 C52.1,47.1 51.6,47.6 51.6,48.2 C51.6,48.8 52.1,49.3 52.7,49.3 C55.2,49.3 57.3,47.3 57.3,44.8 L57.3,10.5 C57.3,9.2 56.7,8 55.9,7.2 C56.7,6.5 57.2,5.4 57.2,4.2 L57.2,4.2 Z M9,47 C7.6,47 6.5,45.9 6.5,44.6 L6.5,13.7 L8.1,13.7 C8.7,13.7 9.2,13.2 9.2,12.6 C9.2,12 8.7,11.5 8.1,11.5 L6.5,11.5 L6.5,10.4 C6.5,9.1 7.6,8 9,8 L11.1,8 C11.7,8 12.2,7.5 12.2,6.9 C12.2,6.3 11.7,6 11.1,6 L9,6 L8.5,6 L8.3,6 C7.3,6 6.5,5.2 6.5,4.2 C6.5,3.2 7.3,2.4 8.3,2.4 L16.7,2.4 C17.3,2.4 17.8,1.9 17.8,1.3 C17.8,0.7 17.3,0.2 16.7,0.2 L8.3,0.2 C6.2,0.2 4.4,1.9 4.4,4.1 C4.4,5.3 5,6.4 5.8,7.1 C4.9,7.9 4.4,9.1 4.4,10.4 L4.4,11.5 L1.8,11.5 C1.2,11.5 0.7,12 0.7,12.6 C0.7,13.2 1.2,13.7 1.8,13.7 L4.4,13.7 L4.4,44.6 C4.4,47.1 6.5,49.1 9,49.1 C9.6,49.1 10.1,48.6 10.1,48 C10.1,47.5 9.6,47 9,47 L9,47 Z" id="Shape"></path>
        </g>
    </g>
</svg>