<?xml version="1.0" encoding="UTF-8" standalone="no"?>
<svg width="90px" height="32px" viewBox="0 0 90 32" version="1.1" xmlns="http://www.w3.org/2000/svg" xmlns:xlink="http://www.w3.org/1999/xlink">
    <!-- Generator: Sketch 3.8.3 (29802) - http://www.bohemiancoding.com/sketch -->
    <title>water</title>
    <desc>Created with Sketch.</desc>
    <defs></defs>
    <g id="Page-1" stroke="none" stroke-width="1" fill="none" fill-rule="evenodd">
        <g id="water" transform="translate(-1.000000, 0.000000)" fill="#000000">
            <path d="M90.577,4.962 C90.01,4.395 89.091,4.395 88.523,4.962 C84.288,9.198 77.393,9.197 73.159,4.962 C67.791,-0.404 59.054,-0.406 53.684,4.962 L53.684,4.963 C51.628,7.016 48.902,8.147 46,8.147 C43.099,8.147 40.37,7.016 38.315,4.961 C38.313,4.961 38.313,4.961 38.313,4.96 C32.944,-0.407 24.209,-0.406 18.842,4.961 C18.841,4.961 18.841,4.962 18.84,4.962 C14.604,9.197 7.711,9.196 3.475,4.961 C2.91,4.394 1.99,4.394 1.422,4.961 C0.856,5.528 0.856,6.447 1.422,7.014 C4.106,9.699 7.631,11.04 11.158,11.04 C14.683,11.04 18.21,9.698 20.894,7.014 L20.894,7.013 C25.128,2.778 32.023,2.778 36.26,7.014 C36.26,7.014 36.26,7.015 36.263,7.015 C38.865,9.617 42.322,11.049 45.994,11.049 C49.67,11.049 53.127,9.616 55.731,7.013 L55.731,7.012 C59.966,2.776 66.862,2.779 71.097,7.013 C71.097,7.014 71.099,7.014 71.101,7.015 C73.786,9.697 77.308,11.038 80.831,11.038 C84.354,11.038 87.882,9.696 90.565,7.012 C91.145,6.45 91.145,5.529 90.577,4.962 L90.577,4.962 Z" id="Shape"></path>
            <path d="M90.577,14.968 C90.01,14.402 89.091,14.402 88.523,14.968 C84.288,19.205 77.393,19.204 73.159,14.968 C67.791,9.602 59.054,9.6 53.684,14.968 L53.684,14.969 C51.628,17.023 48.902,18.154 46,18.154 C43.099,18.154 40.37,17.023 38.315,14.968 C38.313,14.967 38.313,14.967 38.313,14.966 C32.944,9.6 24.209,9.601 18.842,14.968 C18.841,14.968 18.841,14.969 18.84,14.969 C14.604,19.204 7.711,19.203 3.475,14.968 C2.91,14.401 1.99,14.401 1.422,14.968 C0.856,15.536 0.856,16.455 1.422,17.021 C4.106,19.707 7.631,21.046 11.158,21.046 C14.683,21.046 18.21,19.703 20.894,17.021 L20.894,17.021 C25.128,12.785 32.023,12.785 36.26,17.021 C36.26,17.023 36.26,17.023 36.263,17.023 C38.865,19.626 42.322,21.058 45.994,21.058 C49.67,21.058 53.127,19.622 55.731,17.021 L55.731,17.021 C59.966,12.785 66.862,12.787 71.097,17.023 C71.097,17.023 71.099,17.023 71.101,17.025 C73.786,19.708 77.308,21.046 80.831,21.046 C84.354,21.046 87.882,19.703 90.565,17.021 C91.145,16.456 91.145,15.537 90.577,14.968 L90.577,14.968 Z" id="Shape"></path>
            <path d="M90.577,24.975 C90.01,24.411 89.091,24.411 88.523,24.975 C84.288,29.211 77.393,29.21 73.159,24.975 C67.791,19.61 59.054,19.608 53.684,24.975 L53.684,24.977 C51.628,27.03 48.902,28.163 46,28.163 C43.099,28.163 40.37,27.03 38.315,24.975 C38.313,24.975 38.313,24.975 38.313,24.973 C32.944,19.608 24.209,19.608 18.842,24.975 C18.841,24.975 18.841,24.977 18.84,24.977 C14.604,29.211 7.711,29.21 3.475,24.975 C2.91,24.41 1.99,24.41 1.422,24.975 C0.856,25.542 0.856,26.461 1.422,27.028 C4.106,29.715 7.631,31.055 11.158,31.055 C14.683,31.055 18.21,29.711 20.894,27.028 L20.894,27.028 C25.128,22.794 32.023,22.794 36.26,27.028 C36.26,27.03 36.26,27.03 36.263,27.03 C38.865,29.634 42.322,31.065 45.994,31.065 C49.67,31.065 53.127,29.63 55.731,27.028 L55.731,27.028 C59.966,22.794 66.862,22.796 71.097,27.03 C71.097,27.03 71.099,27.03 71.101,27.033 C73.786,29.716 77.308,31.055 80.831,31.055 C84.354,31.055 87.882,29.711 90.565,27.028 C91.145,26.461 91.145,25.542 90.577,24.975 L90.577,24.975 Z" id="Shape"></path>
        </g>
    </g>
</svg>